HIERARCHY
ROOT Hips
{
	OFFSET	0.00	0.00	0.00
	CHANNELS 6 Xposition Yposition Zposition Zrotation Xrotation Yrotation
	JOINT LeftUpLeg
	{
		OFFSET	 0.126116	-0.014019	-0.065224
		CHANNELS 3 Zrotation Xrotation Yrotation
		JOINT LeftLeg
		{
			OFFSET	 0.000000	 0.000000	 0.569914
			CHANNELS 3 Zrotation Xrotation Yrotation
			JOINT LeftFoot
			{
				OFFSET	 0.000000	 0.000000	 0.544423
				CHANNELS 3 Zrotation Xrotation Yrotation
				JOINT LeftToeBase
				{
					OFFSET	 0.000000	 0.000000	 0.207117
					CHANNELS 3 Zrotation Xrotation Yrotation
					End Site
					{
						OFFSET	 0.000000	 0.000000	 0.207117
					}
				}
			}
		}
	}
	JOINT RightUpLeg
	{
		OFFSET	-0.124023	-0.008373	-0.065224
		CHANNELS 3 Zrotation Xrotation Yrotation
		JOINT RightLeg
		{
			OFFSET	 0.000000	 0.000000	 0.570047
			CHANNELS 3 Zrotation Xrotation Yrotation
			JOINT RightFoot
			{
				OFFSET	 0.000000	 0.000000	 0.544354
				CHANNELS 3 Zrotation Xrotation Yrotation
				JOINT RightToeBase
				{
					OFFSET	 0.000000	 0.000000	 0.207540
					CHANNELS 3 Zrotation Xrotation Yrotation
					End Site
					{
						OFFSET	 0.000000	 0.000000	 0.207540
					}
				}
			}
		}
	}
	JOINT Spine
	{
		OFFSET	 0.000184	-0.007763	 0.117403
		CHANNELS 3 Zrotation Xrotation Yrotation
		JOINT Spine1
		{
			OFFSET	 0.000000	 0.000000	 0.137269
			CHANNELS 3 Zrotation Xrotation Yrotation
			JOINT Spine2
			{
				OFFSET	 0.000000	 0.000000	 0.156879
				CHANNELS 3 Zrotation Xrotation Yrotation
				JOINT LeftShoulder
				{
					OFFSET	 0.080501	-0.002496	 0.160144
					CHANNELS 3 Zrotation Xrotation Yrotation
					JOINT LeftArm
					{
						OFFSET	 0.000000	 0.000000	 0.164363
						CHANNELS 3 Zrotation Xrotation Yrotation
						JOINT LeftForeArm
						{
							OFFSET	 0.000000	 0.000000	 0.364576
							CHANNELS 3 Zrotation Xrotation Yrotation
							JOINT LeftHand
							{
								OFFSET	 0.000000	 0.000000	 0.360812
								CHANNELS 3 Zrotation Xrotation Yrotation
								JOINT LeftHandIndex1
								{
									OFFSET	 0.000000	 0.000000	 0.086006
									CHANNELS 3 Zrotation Xrotation Yrotation
									JOINT LeftHandIndex2
									{
										OFFSET	 0.000000	 0.000000	 0.047236
										CHANNELS 3 Zrotation Xrotation Yrotation
										JOINT LeftHandIndex3
										{
											OFFSET	-0.004284	-0.000551	 0.038166
											CHANNELS 3 Zrotation Xrotation Yrotation
											End Site
											{
												OFFSET	-0.004284	-0.000551	 0.038166
											}
										}
									}
								}
							}
						}
					}
				}
				JOINT Neck
				{
					OFFSET	 0.000000	 0.000000	 0.176489
					CHANNELS 3 Zrotation Xrotation Yrotation
					JOINT Head
					{
						OFFSET	 0.000000	-0.001747	 0.077940
						CHANNELS 3 Zrotation Xrotation Yrotation
						End Site
						{
							OFFSET	 0.000000	-0.001747	 0.077940
						}
					}
				}
				JOINT RightShoulder
				{
					OFFSET	-0.080363	 0.000306	 0.159706
					CHANNELS 3 Zrotation Xrotation Yrotation
					JOINT RightArm
					{
						OFFSET	 0.000000	 0.000000	 0.164196
						CHANNELS 3 Zrotation Xrotation Yrotation
						JOINT RightForeArm
						{
							OFFSET	 0.000000	 0.000000	 0.365611
							CHANNELS 3 Zrotation Xrotation Yrotation
							JOINT RightHand
							{
								OFFSET	 0.000000	 0.000000	 0.360648
								CHANNELS 3 Zrotation Xrotation Yrotation
								JOINT RightHandIndex1
								{
									OFFSET	 0.000000	 0.000000	 0.069977
									CHANNELS 3 Zrotation Xrotation Yrotation
									JOINT RightHandIndex2
									{
										OFFSET	 0.000000	 0.000000	 0.052305
										CHANNELS 3 Zrotation Xrotation Yrotation
										JOINT RightHandIndex3
										{
											OFFSET	 0.009002	-0.000782	 0.042196
											CHANNELS 3 Zrotation Xrotation Yrotation
											End Site
											{
												OFFSET	 0.009002	-0.000782	 0.042196
											}
										}
									}
								}
							}
						}
					}
				}
			}
		}
	}
}
MOTION
Frames:    11
Frame Time: 0.03333334
 0.219882	-0.145692	 0.605483	 3.664387	-0.000014	-0.000013	 4.117246	-1.743471	 179.873500	 3.144691	-11.594560	 1.749916	 4.431090	 71.402270	 1.145380	-2.385832	 28.452790	-0.000001	-4.119452	-2.154259	-179.893100	-3.138409	-11.963990	-1.790670	-4.423576	 71.426400	-1.178366	 2.384659	 28.388700	-0.000001	 7.646746	 3.007608	 0.141728	 12.740700	-1.212404	 0.980617	 15.291840	-1.427052	 1.207759	-91.776180	 78.527400	-180.000000	 12.108180	-5.220949	-1.016094	-4.393910	-0.888968	-0.368802	-19.667440	-20.400530	-4.341254	-3.812334	 37.924440	-2.927599	-2.450526	 36.184240	 0.754587	-1.378229	 35.397820	-2.634230	-0.000002	-3.783157	-0.089647	 3.801154	 0.759699	-0.025185	 89.782090	 78.203830	-180.000000	-12.512950	-5.961371	 1.072636	 4.635322	-0.427254	 0.526688	 21.548030	-21.352980	 8.891045	 6.437017	 35.671460	-0.771858	 2.830251	 35.756010	-7.813440	-2.350882	 35.473990	 5.254307
 0.227058	-0.147838	 0.601767	 92.615590	 0.675419	 3.694728	 5.046712	-4.029015	 176.487000	-11.208830	-33.803560	-5.148563	 171.961600	 86.520650	 179.412300	-2.377200	 30.231870	-0.038935	 1.759402	-12.686750	 178.980500	 3.666717	-47.672540	 5.731152	-175.477500	 82.038120	-178.580300	 2.403672	 22.139020	-0.130299	 6.316281	 0.050002	-1.529158	 12.221310	-2.607346	 0.709681	 15.127220	-4.579045	 1.610109	-91.809830	 77.607800	 179.133300	 36.713020	 69.871140	-39.717030	-8.227652	-3.925651	-20.161910	 3.761965	-22.818300	-5.816782	-3.812334	 37.924440	-2.927599	-2.450526	 36.184240	 0.754587	-1.378229	 35.397820	-2.634230	 0.505325	 6.048918	-3.203236	 4.154942	-13.856100	-0.523884	 89.765290	 79.266950	-179.645000	-36.378210	 70.363360	 39.096100	 4.459330	-7.680435	 30.793020	-7.560225	-23.579370	 10.496470	 6.437017	 35.671460	-0.771858	 2.830251	 35.756010	-7.813440	-2.350882	 35.473990	 5.254307
 0.215401	-0.146064	 0.600982	 92.890630	 0.780460	 3.738806	 5.008863	-4.300215	 176.532900	-11.008310	-34.170590	-5.106917	 171.961200	 86.182590	 179.569500	-2.375804	 30.492440	-0.044726	 1.858130	-12.876990	 178.970000	 3.855465	-48.116490	 5.991748	-176.052500	 81.589100	-177.877300	 2.403541	 22.215420	-0.128757	 5.627856	-0.062583	-1.593235	 12.156160	-2.818112	 0.680470	 15.018490	-4.823989	 1.630428	-91.808670	 77.609280	 179.161000	 36.587900	 69.777530	-39.608340	-8.740154	-3.795190	-20.996040	 3.400998	-23.605770	-5.913625	-3.812334	 37.924440	-2.927599	-2.450526	 36.184240	 0.754587	-1.378229	 35.397820	-2.634230	 0.468788	 5.756237	-3.464325	 4.110330	-13.611950	-0.276598	 89.764250	 79.263600	-179.623000	-36.259550	 70.475750	 39.052150	 4.853941	-7.384599	 30.592940	-7.331932	-24.359310	 10.620730	 6.437017	 35.671460	-0.771858	 2.830251	 35.756010	-7.813440	-2.350882	 35.473990	 5.254307
 0.213498	-0.143782	 0.600372	 92.927930	 0.824162	 3.719124	 5.019952	-4.503292	 176.597300	-10.862070	-34.469020	-5.053989	 172.071200	 85.933260	 179.614500	-2.374835	 30.669690	-0.048677	 1.945279	-13.246970	 178.996400	 4.162602	-48.894970	 6.380575	-176.201300	 81.290260	-177.557700	 2.402847	 22.596310	-0.121055	 4.995000	-0.041432	-1.562544	 12.056280	-3.020714	 0.658099	 14.872610	-5.063919	 1.645465	-91.805390	 77.674960	 179.189600	 36.602370	 69.650220	-39.768270	-9.176302	-3.643530	-21.554730	 3.083867	-24.330150	-6.007215	-3.812334	 37.924440	-2.927599	-2.450526	 36.184240	 0.754587	-1.378229	 35.397820	-2.634230	 0.376969	 5.533411	-3.471987	 4.001455	-13.546560	-0.359172	 89.765250	 79.194110	-179.616600	-36.350570	 70.530800	 39.331850	 5.162144	-7.168172	 30.545300	-7.170977	-25.075780	 10.741160	 6.437017	 35.671460	-0.771858	 2.830251	 35.756010	-7.813440	-2.350882	 35.473990	 5.254307
 0.213772	-0.139860	 0.599517	 92.782330	 0.843410	 3.553301	 5.229210	-4.710112	 176.852000	-10.796550	-34.806630	-4.913432	 172.542100	 85.649360	 179.434500	-2.374103	 30.801480	-0.051617	 2.205613	-14.294050	 179.225800	 4.548984	-50.819640	 7.124485	-176.253700	 81.133700	-177.317800	 2.399981	 23.901860	-0.094430	 4.035522	 0.240940	-1.366210	 11.809240	-3.276617	 0.662768	 14.538930	-5.389008	 1.649262	-91.798420	 77.820640	 179.260900	 36.685240	 69.422130	-40.200150	-9.781084	-3.395253	-22.172200	 2.648783	-25.405090	-6.154257	-3.812334	 37.924440	-2.927599	-2.450526	 36.184240	 0.754587	-1.378229	 35.397820	-2.634230	 0.104320	 5.581701	-3.153644	 3.713093	-13.845160	-0.852681	 89.768750	 79.040500	-179.639400	-36.503540	 70.597700	 39.798880	 5.682916	-6.838897	 30.591430	-6.866857	-26.133190	 10.931530	 6.437017	 35.671460	-0.771858	 2.830251	 35.756010	-7.813440	-2.350882	 35.473990	 5.254307
 0.214052	-0.135645	 0.598604	 92.538980	 0.869765	 3.186395	 5.672713	-4.792283	 177.246900	-10.953090	-34.985370	-4.723813	 174.296300	 85.458650	 178.028100	-2.372871	 31.021160	-0.056533	 2.287165	-16.017330	 179.725700	 5.248423	-53.750970	 8.152872	-176.063800	 81.379010	-177.404600	 2.392236	 26.486110	-0.040654	 3.137038	 0.650004	-0.985498	 11.633450	-3.504920	 0.739442	 14.335270	-5.755095	 1.671559	-91.791900	 77.997030	 179.308000	 36.812300	 69.157240	-40.830490	-10.376720	-3.124857	-22.612560	 2.231201	-26.487810	-6.312528	-3.812334	 37.924440	-2.927599	-2.450526	 36.184240	 0.754587	-1.378229	 35.397820	-2.634230	 0.005662	 5.423736	-3.184360	 3.608438	-14.060250	-0.955611	 89.773170	 78.855020	-179.688000	-36.768090	 70.635870	 40.409260	 6.232027	-6.495028	 30.725720	-6.498602	-27.191190	 11.137150	 6.437017	 35.671460	-0.771858	 2.830251	 35.756010	-7.813440	-2.350882	 35.473990	 5.254307
 0.214433	-0.130393	 0.597234	 92.083720	 0.905176	 2.565296	 6.273365	-4.682567	 177.940300	-11.308140	-34.950570	-4.486923	 175.629300	 85.362660	 177.040900	-2.371149	 31.319130	-0.063244	 2.507771	-19.049870	-179.454300	 6.794949	-58.563200	 10.275870	-175.154900	 82.656520	-178.128700	 2.368911	 31.436020	 0.067379	 2.138046	 1.155093	-0.342792	 11.473790	-3.705835	 0.899944	 14.136980	-6.192055	 1.701915	-91.784520	 78.231400	 179.346900	 36.910160	 68.813850	-41.645310	-11.053080	-2.797954	-22.952300	 1.785084	-27.775390	-6.513990	-3.812334	 37.924440	-2.927599	-2.450526	 36.184240	 0.754587	-1.378229	 35.397820	-2.634230	-0.030979	 5.331030	-3.280245	 3.539153	-14.431600	-1.037166	 89.776990	 78.614150	-179.712200	-37.140850	 70.655190	 41.154720	 6.884901	-6.088662	 31.026920	-6.010392	-28.440160	 11.401340	 6.437017	 35.671460	-0.771858	 2.830251	 35.756010	-7.813440	-2.350882	 35.473990	 5.254307
 0.215126	-0.124787	 0.595431	 91.532950	 0.933137	 1.876615	 6.878939	-4.323671	 178.790400	-11.786950	-34.610260	-4.252365	 176.692600	 85.394490	 176.239800	-2.369400	 31.615260	-0.069931	 2.875659	-22.960120	-178.556100	 10.024280	-64.546970	 14.220070	-173.141800	 85.226520	-179.850600	 2.346907	 34.661500	 0.142389	 1.126103	 1.669210	 0.324758	 11.328440	-3.869762	 1.113150	 13.956280	-6.647433	 1.735189	-91.779300	 78.413770	 179.370900	 36.945870	 68.423360	-42.485000	-11.692980	-2.462717	-23.127740	 1.371899	-29.085400	-6.736120	-3.812334	 37.924440	-2.927599	-2.450526	 36.184240	 0.754587	-1.378229	 35.397820	-2.634230	-0.018797	 5.304117	-3.401650	 3.500358	-14.933000	-1.083626	 89.779470	 78.427600	-179.728400	-37.653710	 70.640850	 42.029870	 7.517509	-5.672133	 31.422530	-5.477526	-29.705630	 11.691840	 6.437017	 35.671460	-0.771858	 2.830251	 35.756010	-7.813440	-2.350882	 35.473990	 5.254307
 0.216924	-0.119161	 0.593297	 90.926790	 0.977625	 1.225161	 7.674805	-3.738429	 179.536300	-12.300070	-33.942150	-3.897519	 178.047900	 85.490020	 175.248900	-2.364728	 32.367430	-0.087080	 3.197669	-27.643390	-177.867400	 17.486030	-70.373960	 22.199360	-169.072100	 88.983360	 176.819500	 2.376896	 30.001740	 0.035292	-0.031071	 2.071014	 0.975089	 11.158200	-3.967362	 1.337413	 13.774470	-7.095221	 1.765973	-91.775440	 78.550650	 179.335700	 36.760160	 67.960520	-43.090200	-12.405050	-2.068866	-23.198410	 0.865596	-30.510470	-7.001456	-3.812334	 37.924440	-2.927599	-2.450526	 36.184240	 0.754587	-1.378229	 35.397820	-2.634230	 0.017615	 5.305907	-3.540175	 3.500937	-15.437300	-1.069273	 89.781030	 78.294500	-179.723200	-38.352850	 70.594100	 43.106520	 8.112087	-5.234485	 31.883630	-4.920302	-31.060870	 12.043690	 6.437017	 35.671460	-0.771858	 2.830251	 35.756010	-7.813440	-2.350882	 35.473990	 5.254307
 0.220359	-0.114017	 0.591544	 90.568370	 1.009511	 0.653237	 8.460866	-3.153735	-179.946200	-12.604270	-33.196550	-3.456430	 179.460100	 85.669300	 174.331100	-2.357066	 33.507970	-0.113495	 3.132357	-31.972550	-177.431400	 27.515090	-73.942760	 32.273060	-59.197110	 89.652820	 68.005080	 2.388186	 27.554560	-0.017947	-1.433571	 2.493707	 1.565329	 10.829750	-4.158589	 1.509943	 13.586350	-7.494961	 1.788822	-91.769500	 78.725720	 179.246400	 36.675160	 67.511820	-43.692850	-13.129870	-1.646075	-23.259970	 0.285687	-31.967500	-7.300455	-3.812334	 37.924440	-2.927599	-2.450526	 36.184240	 0.754587	-1.378229	 35.397820	-2.634230	 0.003921	 5.247676	-3.758837	 3.606002	-15.813030	-0.829876	 89.782590	 78.116430	-179.868600	-38.742310	 70.589440	 43.627380	 8.659805	-4.795254	 32.336590	-4.384840	-32.466660	 12.426920	 6.437017	 35.671460	-0.771858	 2.830251	 35.756010	-7.813440	-2.350882	 35.473990	 5.254307
 0.225729	-0.109109	 0.590849	 90.405560	 1.062293	 0.629024	 8.670132	-2.582762	-179.886100	-12.672670	-32.159490	-3.232460	-179.782200	 85.846680	 173.679900	-2.351798	 34.235830	-0.130625	 2.715140	-35.597450	-177.870800	 32.070770	-74.685870	 36.400210	-149.394200	 88.943150	 158.780100	 2.380512	 29.282750	 0.019459	-3.057777	 2.791255	 1.582429	 10.479940	-4.366280	 1.451605	 13.455660	-7.831485	 1.810803	-91.764920	 78.815070	 179.117900	 36.999150	 67.131100	-44.763270	-13.792000	-1.235712	-23.329330	-0.232762	-33.494560	-7.642843	-3.812334	 37.924440	-2.927599	-2.450526	 36.184240	 0.754587	-1.378229	 35.397820	-2.634230	 0.032812	 4.987007	-4.041565	 3.819201	-15.963720	-0.180532	 89.781730	 78.024030	 179.948600	-38.848870	 70.654620	 43.687490	 9.268520	-4.306653	 32.749080	-3.790376	-33.936180	 12.864130	 6.437017	 35.671460	-0.771858	 2.830251	 35.756010	-7.813440	-2.350882	 35.473990	 5.254307
